<svg xmlns="http://www.w3.org/2000/svg" viewBox="0 0 300 200">
  <!-- Duck body -->
  <ellipse cx="150" cy="120" rx="80" ry="60" fill="#FFD700" stroke="#000" stroke-width="3" transform="rotate(5, 150, 120)"/>
  
  <!-- Duck head -->
  <circle cx="220" cy="80" r="40" fill="#FFD700" stroke="#000" stroke-width="3" transform="rotate(-5, 220, 80)"/>
  
  <!-- Duck beak -->
  <path d="M260 90 L290 80 L280 100 Z" fill="#FFA500" stroke="#000" stroke-width="2"/>
  
  <!-- Duck eye -->
  <circle cx="230" cy="70" r="8" fill="#000"/>
  <circle cx="232" cy="68" r="3" fill="#FFF"/>
  
  <!-- Ugly details to match the chaotic style -->
  <rect x="140" y="100" width="20" height="40" fill="#FF00FF" transform="rotate(15, 150, 120)"/>
  <rect x="160" y="110" width="20" height="30" fill="#00FFFF" transform="rotate(-10, 170, 125)"/>
  
  <!-- Wings -->
  <path d="M100 120 Q70 100 80 140 Q90 160 110 150 Z" fill="#FFD700" stroke="#000" stroke-width="2"/>
  <path d="M200 120 Q230 100 220 140 Q210 160 190 150 Z" fill="#FFD700" stroke="#000" stroke-width="2"/>
  
  <!-- Feet -->
  <path d="M130 180 L140 200 L150 190" fill="#FFA500" stroke="#000" stroke-width="2"/>
  <path d="M170 180 L160 200 L150 190" fill="#FFA500" stroke="#000" stroke-width="2"/>
</svg>